<svg width="310" height="128" viewBox="0 0 310 128" fill="none" xmlns="http://www.w3.org/2000/svg">
<path d="M154.6 118.8C126.7 118.8 96.6 101.3 96.6 62.9C96.6 24.5 126.7 7 154.6 7C170.1 7 184.4 12.1 195 21.4C206.5 31.6 212.6 46 212.6 62.9C212.6 79.8 206.5 94.1 195 104.3C184.4 113.6 170 118.8 154.6 118.8Z" fill="url(#paint0_radial_1111_1075)"/>
<path d="M202.49 29.6699C207.82 38.2699 210.6 48.5099 210.6 59.8999C210.6 76.7999 204.5 91.0999 193 101.3C182.4 110.6 168 115.8 152.6 115.8C134.54 115.8 115.6 108.45 104.42 92.8599C115.18 110.52 135.42 118.8 154.6 118.8C170 118.8 184.4 113.6 195 104.3C206.5 94.0999 212.6 79.7999 212.6 62.8999C212.6 50.1599 209.13 38.8399 202.49 29.6699V29.6699Z" fill="#EB8F00"/>
<path d="M135.67 45.9404C131.48 45.9404 127.67 49.4804 127.67 55.3604C127.67 61.2404 131.48 64.7704 135.67 64.7704C139.86 64.7704 143.67 61.2304 143.67 55.3604C143.67 49.4904 139.86 45.9404 135.67 45.9404Z" fill="#422B0D"/>
<path d="M135.28 49.8705C134.595 49.5448 133.81 49.5028 133.094 49.7538C132.379 50.0048 131.791 50.5284 131.46 51.2105C130.93 52.3205 131.17 53.6505 132.06 54.5105C133.48 55.1905 135.19 54.5905 135.88 53.1705C136.41 52.0605 136.17 50.7305 135.28 49.8705Z" fill="#896024"/>
<path d="M174 45.9404C169.81 45.9404 166 49.4804 166 55.3604C166 61.2404 169.81 64.7704 174 64.7704C178.19 64.7704 182 61.2304 182 55.3604C182 49.4904 178.21 45.9404 174 45.9404Z" fill="#422B0D"/>
<path d="M173.63 49.8705C172.945 49.5448 172.16 49.5028 171.444 49.7538C170.728 50.0048 170.141 50.5284 169.81 51.2105C169.28 52.3205 169.52 53.6505 170.41 54.5105C171.83 55.1905 173.54 54.5905 174.23 53.1705C174.76 52.0605 174.52 50.7305 173.63 49.8705Z" fill="#896024"/>
<path d="M28.9314 114L31.8836 90.3862L6.4948 92.3048L0 79.0221C3.2474 69.2814 6.34719 59.9834 9.29938 51.1283C10.5787 47.3894 11.8579 43.5522 13.1372 39.6166C14.4165 35.5825 15.6466 31.6961 16.8274 27.9572C18.1067 24.2184 19.2876 20.6763 20.3701 17.331C21.4525 13.9857 22.4366 11.0832 23.3222 8.62345C27.4553 8.62345 31.3423 8.52506 34.9834 8.32828C38.7228 8.03311 42.7082 7.59035 46.9397 7C43.2987 16.1503 39.9037 25.3499 36.7547 34.5986C33.7041 43.8474 30.7027 53.2437 27.7505 62.7876C27.6521 63.4763 27.5537 64.0667 27.4553 64.5586C27.3569 65.0506 27.2093 65.6409 27.0125 66.3297H37.4927C37.5911 65.6409 37.7879 64.5586 38.0832 63.0828C38.3784 61.5085 38.7228 59.6883 39.1164 57.6221C39.51 55.5559 39.9037 53.2929 40.2973 50.8331C40.7893 48.3733 41.2814 45.8644 41.7734 43.3062C42.7575 37.5995 43.9383 31.3517 45.316 24.5628C48.465 24.0708 51.6632 23.628 54.9106 23.2345C57.5676 22.8409 60.3229 22.4966 63.1767 22.2014C66.0305 21.9062 68.4906 21.6602 70.5572 21.4635C70.4588 22.4474 70.1635 24.12 69.6715 26.4814C69.2779 28.8428 68.7859 31.4993 68.1954 34.451C67.7034 37.4028 67.1622 40.5513 66.5717 43.8966C66.0797 47.2418 65.5385 50.3903 64.948 53.3421C64.3576 56.2938 63.8656 58.9503 63.4719 61.3117C63.0783 63.6731 62.7831 65.3457 62.5863 66.3297H71L64.948 89.9435H57.42L56.0915 109.277L28.9314 114Z" fill="black"/>
<path d="M267.931 114L270.884 90.3862L245.495 92.3048L239 79.0221C242.247 69.2814 245.347 59.9834 248.299 51.1283C249.579 47.3894 250.858 43.5522 252.137 39.6166C253.416 35.5825 254.647 31.6961 255.827 27.9572C257.107 24.2184 258.288 20.6763 259.37 17.331C260.453 13.9857 261.437 11.0832 262.322 8.62345C266.455 8.62345 270.342 8.52506 273.983 8.32828C277.723 8.03311 281.708 7.59035 285.94 7C282.299 16.1503 278.904 25.3499 275.755 34.5986C272.704 43.8474 269.703 53.2437 266.751 62.7876C266.652 63.4763 266.554 64.0667 266.455 64.5586C266.357 65.0506 266.209 65.6409 266.012 66.3297H276.493C276.591 65.6409 276.788 64.5586 277.083 63.0828C277.378 61.5085 277.723 59.6883 278.116 57.6221C278.51 55.5559 278.904 53.2929 279.297 50.8331C279.789 48.3733 280.281 45.8644 280.773 43.3062C281.757 37.5995 282.938 31.3517 284.316 24.5628C287.465 24.0708 290.663 23.628 293.911 23.2345C296.568 22.8409 299.323 22.4966 302.177 22.2014C305.03 21.9062 307.491 21.6602 309.557 21.4635C309.459 22.4474 309.164 24.12 308.672 26.4814C308.278 28.8428 307.786 31.4993 307.195 34.451C306.703 37.4028 306.162 40.5513 305.572 43.8966C305.08 47.2418 304.538 50.3903 303.948 53.3421C303.358 56.2938 302.866 58.9503 302.472 61.3117C302.078 63.6731 301.783 65.3457 301.586 66.3297H310L303.948 89.9435H296.42L295.091 109.277L267.931 114Z" fill="black"/>
<defs>
<radialGradient id="paint0_radial_1111_1075" cx="0" cy="0" r="1" gradientUnits="userSpaceOnUse" gradientTransform="translate(154.6 62.9) scale(56.96)">
<stop offset="0.5" stop-color="#FDE030"/>
<stop offset="0.92" stop-color="#F7C02B"/>
<stop offset="1" stop-color="#F4A223"/>
</radialGradient>
</defs>
</svg>
