<svg width="501" height="143" viewBox="0 0 501 143" fill="none" xmlns="http://www.w3.org/2000/svg">
<path d="M121.959 86C124.168 86 125.959 84.2091 125.959 82C125.959 79.7909 124.168 78 121.959 78C119.75 78 117.959 79.7909 117.959 82C117.959 84.2091 119.75 86 121.959 86Z" fill="white"/>
<path d="M117.938 100.707C114.141 113.686 72.5572 112.944 72.0806 110.25C71.8149 108.735 84.9371 108.943 97.0751 98.1144C103.811 92.1089 105.843 86.6275 109.952 87.061C114.588 87.5547 119.512 95.3213 117.938 100.707Z" fill="white"/>
<path fill-rule="evenodd" clip-rule="evenodd" d="M10.2555 66H45.7445C49.7495 66 53 62.7581 53 58.7528V27.8315C53 25.1645 50.833 23 48.163 23H3V58.7528C3 62.7533 6.25046 66 10.2555 66ZM11.4439 61H44.5561C46.4571 61 48 59.4768 48 57.6V29.2667C48 28.0155 46.9714 27 45.7041 27H10.2959C9.02858 27 8 28.0155 8 29.2667V57.6C8 59.4768 9.54288 61 11.4439 61Z" fill="white"/>
<path d="M7.48947 30H0.51053C0.229738 30 0 29.775 0 29.5V23.5C0 23.225 0.229738 23 0.51053 23H7.48947C7.77026 23 8 23.225 8 23.5V29.5C8 29.775 7.77026 30 7.48947 30Z" fill="white"/>
<path fill-rule="evenodd" clip-rule="evenodd" d="M116.745 66H81.2555C77.2505 66 74 62.7581 74 58.7528V27.8315C74 25.1645 76.167 23 78.837 23H124V58.7528C124 62.7533 120.75 66 116.745 66ZM115.556 61H82.4439C80.5429 61 79 59.4768 79 57.6V29.2667C79 28.0155 80.0286 27 81.2959 27H116.704C117.971 27 119 28.0155 119 29.2667V57.6C119 59.4768 117.457 61 115.556 61Z" fill="white"/>
<path d="M120.447 30H126.553C126.799 30 127 29.775 127 29.5V23.5C127 23.225 126.799 23 126.553 23H120.447C120.201 23 120 23.225 120 23.5V29.5C120 29.775 120.201 30 120.447 30Z" fill="white"/>
<path d="M74 35H53V39H74V35Z" fill="white"/>
<path d="M237.279 65.2652C238.355 65.2766 239.383 65.7099 240.143 66.4715C240.902 67.2332 241.332 68.2624 241.339 69.3375C241.346 69.8658 241.246 70.39 241.044 70.8784C240.843 71.3669 240.544 71.8094 240.167 72.1794C232.966 78.0749 223.928 81.2672 214.619 81.2031C209.275 81.283 203.97 80.2689 199.032 78.2233C194.094 76.1776 189.627 73.1437 185.906 69.3083C182.068 65.5894 179.033 61.1249 176.986 56.1897C174.939 51.2545 173.925 45.9529 174.005 40.6111C173.923 35.267 174.938 29.9628 176.984 25.025C179.031 20.0873 182.067 15.6204 185.906 11.8993C189.627 8.06378 194.094 5.02987 199.032 2.98424C203.97 0.938601 209.275 -0.0754875 214.619 0.00437582C224.071 -0.0850824 233.242 3.20939 240.475 9.29177C240.857 9.67611 241.158 10.1337 241.36 10.6371C241.561 11.1406 241.659 11.6795 241.647 12.2215C241.662 12.7666 241.563 13.3089 241.356 13.8134C241.149 14.318 240.839 14.7737 240.445 15.1513C240.069 15.5469 239.613 15.8585 239.108 16.0655C238.603 16.2726 238.06 16.3704 237.514 16.3525C236.966 16.3639 236.422 16.2602 235.917 16.0482C235.412 15.8363 234.958 15.5207 234.582 15.122C228.353 10.2403 220.555 7.79695 212.652 8.25001C204.749 8.70307 197.282 12.0214 191.652 17.583C188.585 20.5719 186.163 24.1574 184.537 28.1181C182.911 32.0788 182.115 36.3307 182.198 40.6111C182.132 44.8849 182.944 49.1267 184.582 53.0748C186.221 57.0229 188.652 60.5934 191.725 63.5659C197.384 69.1986 204.919 72.5523 212.894 72.9873C220.869 73.4223 228.725 70.9081 234.963 65.9244C235.65 65.4739 236.458 65.2439 237.279 65.2652V65.2652Z" fill="white"/>
<path d="M249.151 28.4232C249.213 27.3872 249.669 26.4141 250.425 25.7026C251.181 24.9911 252.18 24.5949 253.219 24.5949C254.257 24.5949 255.256 24.9911 256.012 25.7026C256.768 26.4141 257.224 27.3872 257.286 28.4232V32.8911C259.908 30.16 263.062 27.9945 266.553 26.5282C270.044 25.0619 273.799 24.3259 277.586 24.3654C281.323 24.31 285.033 24.992 288.506 26.3723C289.13 26.6133 289.702 26.9713 290.191 27.427C290.569 27.8141 290.866 28.2725 291.065 28.7755C291.264 29.2785 291.36 29.8161 291.349 30.3568C291.349 30.8897 291.244 31.4173 291.04 31.9097C290.836 32.402 290.537 32.8493 290.16 33.2261C289.783 33.6029 289.335 33.9018 288.843 34.1057C288.35 34.3096 287.822 34.4146 287.289 34.4146C286.673 34.423 286.065 34.2823 285.516 34.0044C282.998 32.9891 280.301 32.4909 277.586 32.5395C272.216 32.5356 267.064 34.6598 263.258 38.4466C259.453 42.2333 257.305 47.3735 257.286 52.7403V77.1454C257.224 78.1813 256.768 79.1544 256.012 79.8659C255.256 80.5774 254.257 80.9736 253.219 80.9736C252.18 80.9736 251.181 80.5774 250.425 79.8659C249.669 79.1544 249.213 78.1813 249.151 77.1454V28.4232Z" fill="white"/>
<path d="M346.65 72.6776C344.026 75.4099 340.869 77.5759 337.376 79.0422C333.882 80.5085 330.124 81.244 326.335 81.2033C322.592 81.2623 318.877 80.5545 315.419 79.1235C311.96 77.6924 308.831 75.5685 306.226 72.8827C303.534 70.2723 301.407 67.138 299.975 63.6737C298.543 60.2093 297.837 56.4883 297.9 52.7405C297.843 49.0001 298.552 45.2875 299.984 41.8311C301.416 38.3747 303.54 35.2476 306.226 32.6423C311.56 27.3144 318.793 24.3215 326.335 24.3215C333.877 24.3215 341.11 27.3144 346.445 32.6423C349.133 35.2461 351.258 38.3728 352.69 41.8296C354.122 45.2864 354.83 48.9997 354.77 52.7405V77.1456C354.787 77.9538 354.561 78.7485 354.121 79.4271C353.682 80.1057 353.049 80.6369 352.304 80.9523C351.559 81.2677 350.737 81.3528 349.943 81.1964C349.15 81.0401 348.421 80.6496 347.852 80.0753C347.457 79.6988 347.146 79.2433 346.938 78.7385C346.731 78.2337 346.633 77.6909 346.65 77.1456V72.6776ZM326.335 32.4811C323.671 32.4792 321.033 33.0017 318.571 34.0188C316.109 35.0359 313.872 36.5276 311.987 38.4089C310.102 40.2902 308.606 42.5241 307.585 44.9831C306.564 47.4421 306.037 50.0781 306.035 52.7405C305.962 55.4517 306.434 58.15 307.421 60.6761C308.409 63.2023 309.893 65.505 311.786 67.4484C313.679 69.3917 315.942 70.9364 318.443 71.9911C320.943 73.0458 323.629 73.5892 326.343 73.5892C329.056 73.5892 331.742 73.0458 334.243 71.9911C336.743 70.9364 339.006 69.3917 340.899 67.4484C342.792 65.505 344.276 63.2023 345.264 60.6761C346.251 58.15 346.723 55.4517 346.65 52.7405C346.654 50.0732 346.131 47.4313 345.111 44.9662C344.092 42.5012 342.596 40.2614 340.709 38.3753C338.821 36.4892 336.58 34.9938 334.114 33.9748C331.647 32.9559 329.004 32.4333 326.335 32.4372V32.4811Z" fill="white"/>
<path d="M371.026 77.1454C371.026 78.2216 370.598 79.2537 369.837 80.0146C369.075 80.7756 368.043 81.2031 366.966 81.2031C365.889 81.2031 364.856 80.7756 364.095 80.0146C363.334 79.2537 362.906 78.2216 362.906 77.1454V28.4232C362.906 27.347 363.334 26.3149 364.095 25.5539C364.856 24.793 365.889 24.3654 366.966 24.3654C368.043 24.3654 369.075 24.793 369.837 25.5539C370.598 26.3149 371.026 27.347 371.026 28.4232V29.4925C374.978 26.1037 380.036 24.2797 385.243 24.3654C388.185 24.3202 391.104 24.8779 393.822 26.0041C396.539 27.1303 398.997 28.8011 401.044 30.9135C401.946 31.8228 402.774 32.8025 403.521 33.8433C404.277 32.8058 405.11 31.8264 406.012 30.9135C408.085 28.8375 410.546 27.1905 413.256 26.0667C415.966 24.9429 418.871 24.3644 421.805 24.3644C424.739 24.3644 427.645 24.9429 430.355 26.0667C433.065 27.1905 435.526 28.8375 437.598 30.9135C439.711 32.9565 441.382 35.4104 442.509 38.1239C443.636 40.8373 444.194 43.7528 444.15 46.6903V77.1454C444.15 78.2216 443.722 79.2537 442.961 80.0146C442.2 80.7756 441.167 81.2031 440.09 81.2031C439.013 81.2031 437.981 80.7756 437.219 80.0146C436.458 79.2537 436.03 78.2216 436.03 77.1454V46.6903C436.03 44.8243 435.662 42.9766 434.948 41.2526C434.233 39.5287 433.186 37.9622 431.866 36.6428C430.546 35.3233 428.978 34.2766 427.253 33.5625C425.529 32.8485 423.68 32.4809 421.813 32.4809C419.946 32.4809 418.097 32.8485 416.372 33.5625C414.647 34.2766 413.08 35.3233 411.759 36.6428C410.439 37.9622 409.392 39.5287 408.678 41.2526C407.963 42.9766 407.595 44.8243 407.595 46.6903V77.1454C407.591 78.2229 407.16 79.255 406.397 80.0155C405.633 80.7761 404.599 81.2031 403.521 81.2031C402.445 81.1993 401.415 80.7705 400.654 80.0104C399.893 79.2502 399.464 78.2204 399.461 77.1454V46.6903C399.461 42.9218 397.963 39.3076 395.296 36.6428C392.63 33.978 389.014 32.4809 385.243 32.4809C381.473 32.4809 377.856 33.978 375.19 36.6428C372.524 39.3076 371.026 42.9218 371.026 46.6903V77.1454Z" fill="white"/>
<path d="M472.232 77.1016L452.738 30.2984C452.418 29.6839 452.26 28.9977 452.28 28.305C452.301 27.6124 452.498 26.9364 452.853 26.3416C453.209 25.7468 453.711 25.2529 454.312 24.907C454.913 24.5611 455.592 24.3747 456.285 24.3656C456.828 24.3545 457.367 24.4526 457.87 24.6539C458.374 24.8552 458.832 25.1557 459.217 25.5375C459.63 25.9594 459.958 26.4567 460.184 27.0024L476.629 66.4225L493.089 27.0024C493.323 26.4503 493.667 25.9517 494.101 25.5375C494.47 25.159 494.913 24.8598 495.401 24.6583C495.89 24.4567 496.415 24.3571 496.944 24.3656C497.641 24.3688 498.325 24.5505 498.931 24.8934C499.538 25.2362 500.046 25.7287 500.408 26.3238C500.77 26.9189 500.972 27.5967 500.997 28.2926C501.022 28.9884 500.868 29.679 500.55 30.2984L470.298 102.884C470.081 103.434 469.751 103.933 469.33 104.348C468.765 104.92 468.043 105.311 467.255 105.472C466.467 105.632 465.649 105.556 464.905 105.251C464.161 104.947 463.524 104.428 463.075 103.762C462.626 103.095 462.385 102.31 462.383 101.507C462.375 100.853 462.531 100.209 462.837 99.6316L472.232 77.1016Z" fill="white"/>
<path d="M187.643 129.278C187.643 131.629 186.972 133.429 185.631 134.679C184.296 135.929 182.366 136.554 179.84 136.554H175.797V122.276H180.279C182.61 122.276 184.42 122.892 185.709 124.122C186.998 125.353 187.643 127.071 187.643 129.278ZM184.498 129.356C184.498 126.29 183.144 124.757 180.436 124.757H178.824V134.054H180.123C183.04 134.054 184.498 132.488 184.498 129.356ZM217.224 136.554H209.002V122.276H217.224V124.757H212.029V127.892H216.863V130.372H212.029V134.054H217.224V136.554ZM246.757 122.276H249.814L244.96 136.554H241.659L236.816 122.276H239.872L242.558 130.772C242.708 131.274 242.861 131.86 243.017 132.53C243.18 133.194 243.28 133.657 243.32 133.917C243.391 133.318 243.635 132.27 244.052 130.772L246.757 122.276ZM299.661 136.554L296.223 125.353H296.135C296.259 127.631 296.321 129.151 296.321 129.913V136.554H293.616V122.276H297.737L301.116 133.194H301.174L304.758 122.276H308.879V136.554H306.057V129.796C306.057 129.477 306.06 129.109 306.067 128.692C306.08 128.276 306.125 127.169 306.204 125.372H306.116L302.434 136.554H299.661ZM343.842 129.396C343.842 131.759 343.256 133.575 342.084 134.845C340.912 136.114 339.232 136.749 337.045 136.749C334.857 136.749 333.178 136.114 332.006 134.845C330.834 133.575 330.248 131.752 330.248 129.376C330.248 127 330.834 125.187 332.006 123.937C333.184 122.68 334.87 122.052 337.064 122.052C339.258 122.052 340.935 122.683 342.094 123.946C343.259 125.209 343.842 127.026 343.842 129.396ZM333.422 129.396C333.422 130.991 333.725 132.192 334.33 132.999C334.936 133.806 335.84 134.21 337.045 134.21C339.46 134.21 340.668 132.605 340.668 129.396C340.668 126.179 339.467 124.571 337.064 124.571C335.86 124.571 334.952 124.978 334.34 125.792C333.728 126.599 333.422 127.8 333.422 129.396ZM377.046 129.278C377.046 131.629 376.376 133.429 375.035 134.679C373.7 135.929 371.77 136.554 369.244 136.554H365.201V122.276H369.683C372.014 122.276 373.824 122.892 375.113 124.122C376.402 125.353 377.046 127.071 377.046 129.278ZM373.902 129.356C373.902 126.29 372.548 124.757 369.839 124.757H368.228V134.054H369.527C372.444 134.054 373.902 132.488 373.902 129.356ZM410.027 122.276V131.515C410.027 132.569 409.789 133.494 409.314 134.288C408.845 135.082 408.165 135.691 407.273 136.114C406.381 136.537 405.326 136.749 404.109 136.749C402.273 136.749 400.847 136.28 399.831 135.343C398.816 134.399 398.308 133.11 398.308 131.476V122.276H401.325V131.017C401.325 132.117 401.547 132.924 401.989 133.438C402.432 133.953 403.165 134.21 404.187 134.21C405.176 134.21 405.892 133.953 406.335 133.438C406.784 132.918 407.009 132.104 407.009 130.997V122.276H410.027ZM431.923 136.554V122.276H434.95V134.054H440.741V136.554H431.923ZM469.854 136.554H461.631V122.276H469.854V124.757H464.659V127.892H469.493V130.372H464.659V134.054H469.854V136.554ZM499.67 132.589C499.67 133.878 499.204 134.894 498.273 135.636C497.349 136.378 496.06 136.749 494.406 136.749C492.883 136.749 491.535 136.463 490.363 135.89V133.077C491.327 133.507 492.141 133.81 492.805 133.985C493.475 134.161 494.087 134.249 494.641 134.249C495.305 134.249 495.812 134.122 496.164 133.868C496.522 133.614 496.701 133.237 496.701 132.735C496.701 132.455 496.623 132.208 496.467 131.993C496.311 131.772 496.079 131.56 495.773 131.358C495.474 131.157 494.859 130.834 493.928 130.392C493.055 129.981 492.401 129.588 491.965 129.21C491.529 128.832 491.18 128.393 490.92 127.892C490.66 127.39 490.529 126.804 490.529 126.134C490.529 124.871 490.956 123.878 491.809 123.155C492.668 122.433 493.853 122.071 495.363 122.071C496.105 122.071 496.812 122.159 497.482 122.335C498.16 122.511 498.866 122.758 499.602 123.077L498.625 125.431C497.863 125.118 497.232 124.9 496.73 124.776C496.236 124.653 495.747 124.591 495.266 124.591C494.693 124.591 494.253 124.724 493.947 124.991C493.641 125.258 493.488 125.606 493.488 126.036C493.488 126.303 493.55 126.537 493.674 126.739C493.798 126.935 493.993 127.127 494.26 127.315C494.533 127.498 495.174 127.83 496.184 128.312C497.518 128.95 498.433 129.591 498.928 130.235C499.423 130.873 499.67 131.658 499.67 132.589Z" fill="white"/>
</svg>
