<svg width="39" height="34" viewBox="0 0 39 34" fill="none" xmlns="http://www.w3.org/2000/svg">
<path d="M30.8446 23.7637H8.15265V11.0225C8.15265 5.52673 12.6084 1.071 18.1042 1.071H20.9815C26.4289 1.071 30.8446 5.48672 30.8446 10.9341V23.763V23.7637ZM37.0436 32.7011H30.8446V13.7385H33.4996C34.4395 13.7385 35.341 14.1119 36.0056 14.7765C36.6703 15.4412 37.0436 16.3426 37.0436 17.2826V32.7011V32.7011ZM8.15265 23.7637H30.8439V32.7018H8.15265V23.7637Z" fill="#FCC21B"/>
<path d="M30.8446 23.7637H8.15265V21.4127C8.15256 21.0519 8.22354 20.6947 8.36155 20.3614C8.49956 20.0281 8.70189 19.7252 8.95698 19.4701C9.21206 19.2151 9.51491 19.0127 9.84821 18.8747C10.1815 18.7367 10.5387 18.6657 10.8995 18.6658H27.5202C27.9568 18.6658 28.3891 18.7518 28.7924 18.9189C29.1958 19.0859 29.5622 19.3308 29.8709 19.6395C30.1796 19.9482 30.4245 20.3147 30.5916 20.718C30.7587 21.1214 30.8446 21.5537 30.8446 21.9902V23.763V23.7637Z" fill="#FCC21B"/>
<path d="M1.95364 32.7011H8.15264V13.7385H5.49773C4.55778 13.7385 3.65633 14.1119 2.99168 14.7765C2.32704 15.4412 1.95364 16.3426 1.95364 17.2826V32.7011V32.7011Z" fill="#FCC21B"/>
<path d="M30.8446 23.7637H8.15265V11.0225C8.15265 5.52673 12.6084 1.071 18.1042 1.071H20.9815C26.4289 1.071 30.8446 5.48672 30.8446 10.9341V23.763V23.7637ZM37.0436 32.7011H30.8446V13.7385H33.4996C34.4395 13.7385 35.341 14.1119 36.0056 14.7765C36.6703 15.4412 37.0436 16.3426 37.0436 17.2826V32.7011V32.7011ZM8.15265 23.7637H30.8439V32.7018H8.15265V23.7637Z" stroke="black" stroke-width="2" stroke-miterlimit="10" stroke-linecap="round" stroke-linejoin="round"/>
<path d="M30.8446 23.7637H8.15265V21.4127C8.15256 21.0519 8.22354 20.6947 8.36155 20.3614C8.49956 20.0281 8.70189 19.7252 8.95698 19.4701C9.21206 19.2151 9.51491 19.0127 9.84821 18.8747C10.1815 18.7367 10.5387 18.6657 10.8995 18.6658H27.5202C27.9568 18.6658 28.3891 18.7518 28.7924 18.9189C29.1958 19.0859 29.5622 19.3308 29.8709 19.6395C30.1796 19.9482 30.4245 20.3147 30.5916 20.718C30.7587 21.1214 30.8446 21.5537 30.8446 21.9902V23.763V23.7637Z" stroke="black" stroke-width="2" stroke-miterlimit="10" stroke-linecap="round" stroke-linejoin="round"/>
<path d="M1.95364 32.7011H8.15264V13.7385H5.49773C4.55778 13.7385 3.65633 14.1119 2.99168 14.7765C2.32704 15.4412 1.95364 16.3426 1.95364 17.2826V32.7011V32.7011Z" stroke="black" stroke-width="2" stroke-miterlimit="10" stroke-linecap="round" stroke-linejoin="round"/>
<path d="M15.1257 8.03708C15.578 8.03708 15.9447 7.6704 15.9447 7.21808C15.9447 6.76576 15.578 6.39908 15.1257 6.39908C14.6734 6.39908 14.3067 6.76576 14.3067 7.21808C14.3067 7.6704 14.6734 8.03708 15.1257 8.03708Z" fill="black"/>
<path d="M24.1017 8.03708C24.5541 8.03708 24.9207 7.6704 24.9207 7.21808C24.9207 6.76576 24.5541 6.39908 24.1017 6.39908C23.6494 6.39908 23.2827 6.76576 23.2827 7.21808C23.2827 7.6704 23.6494 8.03708 24.1017 8.03708Z" fill="black"/>
<path d="M15.1257 14.1631C15.578 14.1631 15.9447 13.7964 15.9447 13.3441C15.9447 12.8917 15.578 12.5251 15.1257 12.5251C14.6734 12.5251 14.3067 12.8917 14.3067 13.3441C14.3067 13.7964 14.6734 14.1631 15.1257 14.1631Z" fill="black"/>
<path d="M24.1017 14.1631C24.5541 14.1631 24.9207 13.7964 24.9207 13.3441C24.9207 12.8917 24.5541 12.5251 24.1017 12.5251C23.6494 12.5251 23.2827 12.8917 23.2827 13.3441C23.2827 13.7964 23.6494 14.1631 24.1017 14.1631Z" fill="black"/>
</svg>
